<?xml version="1.0" encoding="UTF-8"?>
<svg id="Layer_1" data-name="Layer 1" xmlns="http://www.w3.org/2000/svg" xmlns:xlink="http://www.w3.org/1999/xlink" viewBox="0 0 792 612 ">
  <defs>
    <style>
      .cls-1, .cls-2 {
        fill: none;
      }

      .cls-2 {
        stroke: #c2b59b;
        stroke-miterlimit: 10;
        stroke-width: .5px;
      }

      .cls-3 {
        fill: #e58d3e;
      }

      .cls-4 {
        fill: #f5a8ca;
      }

      .cls-5 {
        clip-path: url(#clippath-1);
      }

      .cls-6 {
        fill: url(#linear-gradient-3);
      }

      .cls-6, .cls-7 {
        stroke: #808285;
      }

      .cls-6, .cls-7, .cls-8, .cls-9, .cls-10, .cls-11, .cls-12 {
        stroke-miterlimit: 10;
      }

      .cls-6, .cls-7, .cls-8, .cls-10, .cls-11 {
        stroke-width: .5px;
      }

      .cls-7 {
        fill: url(#linear-gradient-6);
      }

      .cls-13 {
        fill: #f3f0d8;
      }

      .cls-14 {
        fill: #cf6b9a;
      }

      .cls-8 {
        fill: #9eaeac;
        stroke: #9eaeac;
      }

      .cls-9 {
        fill: url(#linear-gradient);
      }

      .cls-9, .cls-12 {
        stroke: #edb27b;
        stroke-width: 2px;
      }

      .cls-10 {
        fill: url(#linear-gradient-5);
      }

      .cls-10, .cls-11 {
        stroke: #6d6e71;
      }

      .cls-11 {
        fill: url(#linear-gradient-2);
      }

      .cls-15 {
        fill: #5bc2af;
      }

      .cls-16 {
        fill: #f2633f;
      }

      .cls-17 {
        clip-path: url(#clippath);
      }

      .cls-12 {
        fill: url(#linear-gradient-4);
      }
    </style>
    <linearGradient id="linear-gradient" x1="87.72" y1="165.18" x2="227.55" y2="165.18" gradientTransform="translate(14.05 622.88) rotate(-11.62) scale(1 -1)" gradientUnits="userSpaceOnUse">
      <stop offset="0" stop-color="#fbb040"/>
      <stop offset="1" stop-color="#fdb940"/>
      <stop offset="1" stop-color="#231f20"/>
    </linearGradient>
    <linearGradient id="linear-gradient-2" x1="71.08" y1="163.28" x2="78.59" y2="163.28" gradientTransform="translate(222.26 566.97) rotate(-34.13) scale(1 -1)" gradientUnits="userSpaceOnUse">
      <stop offset="0" stop-color="#fbb040"/>
      <stop offset="1" stop-color="#fdb940"/>
      <stop offset="1" stop-color="#231f20"/>
    </linearGradient>
    <linearGradient id="linear-gradient-3" x1="78.29" y1="163.86" x2="85.57" y2="163.86" gradientTransform="translate(222.26 566.97) rotate(-34.13) scale(1 -1)" gradientUnits="userSpaceOnUse">
      <stop offset="0" stop-color="#fbb040"/>
      <stop offset="1" stop-color="#fdb940"/>
      <stop offset="1" stop-color="#231f20"/>
    </linearGradient>
    <clipPath id="clippath">
      <path class="cls-1" d="M64.88,354.21v149.74h153.06v-149.74H64.88ZM141.13,369.11l-.8.75c-7.23,1.29-14.21,3.96-20.73,7.92-10.29,6.19-18.94,15.18-25.02,25.99l-.77.5-1.01.11-.85-.33-.44-.5c-1-1.25-1.86-2.98-1.77-5.19.22-1.27.8-2.59,1.68-3.9l24.23-31.5c3.03-1.44,6.14-2.71,9.31-3.77,1.45.39,2.83,1.14,3.96,2.27,3.89,2.47,8.01,4.9,12.31,7.22l-.1.41v.02Z"/>
    </clipPath>
    <linearGradient id="linear-gradient-4" x1="87.72" y1="165.18" x2="227.55" y2="165.18" gradientTransform="translate(14.05 622.88) rotate(-11.62) scale(1 -1)" gradientUnits="userSpaceOnUse">
      <stop offset="0" stop-color="#fbb040"/>
      <stop offset="1" stop-color="#fdb940"/>
      <stop offset="1" stop-color="#231f20"/>
    </linearGradient>
    <linearGradient id="linear-gradient-5" x1="71.08" y1="163.28" x2="78.59" y2="163.28" gradientTransform="translate(222.26 566.97) rotate(-34.13) scale(1 -1)" gradientUnits="userSpaceOnUse">
      <stop offset="0" stop-color="#fbb040"/>
      <stop offset="1" stop-color="#fdb940"/>
      <stop offset="1" stop-color="#231f20"/>
    </linearGradient>
    <linearGradient id="linear-gradient-6" x1="78.29" y1="163.86" x2="85.57" y2="163.86" gradientTransform="translate(222.26 566.97) rotate(-34.13) scale(1 -1)" gradientUnits="userSpaceOnUse">
      <stop offset="0" stop-color="#fbb040"/>
      <stop offset="1" stop-color="#fdb940"/>
      <stop offset="1" stop-color="#231f20"/>
    </linearGradient>
    <clipPath id="clippath-1">
      <path class="cls-1" d="M78.6,357.9v49.41h59.49v-49.41s-59.49,0-59.49,0ZM136.34,368.61c-5.95,1.51-11.75,3.97-17.25,7.31-11,6.62-19.74,15.84-25.98,27.42l-1.66.15c-1.69-2.14-3-5.75.4-10.85l20.79-27.04c.55-.29,1.1-.59,1.66-.87l1.25-1.62c3.07-1.5,6.22-2.8,9.41-3.88.51.14,1.02.31,1.5.54.22-.07.45-.14.67-.21,2.81,2.59,6,5.02,9.49,7.23l-.29,1.81h0Z"/>
    </clipPath>
  </defs>
  <g id="Layer_4" data-name="Layer 4">
    <rect class="cls-13" width="792" height="612"/>
  </g>
  <g id="Layer_1-2" data-name="Layer 1">
    <path class="cls-16" d="M376.67,451.11l63.5-125.44c-32.14,1.18-64.68,2.74-97.22,4.7l-75.26,141.9c-1.57,2.74-5.1,3.92-7.84,2.35l-16.86-8.23c-3.14-1.57-4.31-5.1-2.74-8.23l63.5-125.44c-26.66,1.57-53.31,3.92-79.97,6.27-4.7.39-9.02-3.14-7.45-8.23l2.35-8.62c.78-2.35,2.35-4.31,4.7-4.31,30.58-3.14,61.15-5.88,92.12-8.62l79.18-156.02c1.18-2.74,3.92-3.92,7.06-2.74l23.91,8.23c3.92,1.57,5.49,5.1,3.53,9.02l-73.3,138.38c32.14-2.35,65.07-4.31,97.61-6.27l81.14-159.94c1.18-2.74,3.92-3.92,7.06-2.74l22.34,7.84c3.92,1.57,5.49,5.1,3.53,9.02l-76.44,143.86,96.04-4.7c5.1-.39,7.45,2.74,5.1,6.66l-8.23,15.29c-1.57,3.14-4.31,4.7-9.02,5.1-32.14,1.57-65.07,2.74-98,3.92l-73.7,139.16c-1.57,2.74-4.31,3.92-7.06,2.74l-16.46-6.66c-3.53-1.57-4.7-4.7-3.14-8.23l.02-.02Z"/>
  </g>
  <g id="Layer_3" data-name="Layer 3">
    <g>
      <g>
        <g>
          <path class="cls-9" d="M195.32,388.03c-.56.06-.99.05-1.33-.29-17.93-21.56-48.36-28.1-75.43-11.65-37.99,22.86-41.7,72.23-30.76,91.37,14.01,19.7,36.1,32.61,69.49,17.36,4.05-1.96,15.96-11.6,18.91-14.75,4.67-5,7.6-8.13,9.45-10.6,19.21-25.72,20.25-26.83,21.49-26.45,2.39.74-13.06,23.15-14.18,25.71-.47,1.09-11.86,15.73-13.05,17.14-2.34,2.77-5.46,5.37-8.3,7.74-8.13,6.43-17.93,12.04-27.56,14.49-10,2.8-20.54,3.78-31.23,1.9-18.94-3.78-33.59-17.5-40.56-33.69-4.73-11.41-5.81-30.01-2.38-42.79,3.05-10.2,8.28-19.46,14.04-28.8,6.46-9.99,13.65-18.84,23.34-24.73,20.39-13.52,50.46-18.64,71.27-3.62,3.32,2.36,6.58,4.4,9.4,7.38,3.39,3.47,6.83,8.94,8.33,11.61.69,1.14.58,2.49-.88,2.67h-.07,0Z"/>
          <path class="cls-8" d="M196.17,388.21c.34.96,1.43,2.49,1.83,4.22.41,1.64.32,3.39.18,5.09-1.36,11.75,5.84,16.57,15.48,21.08,3.29,1.55,2.06.59-.05-1.4-4.67-4.72-11.52-9.67-12.58-16.76-.63-4.41,1.3-9.8-2.86-12.64-.77-.53-2.36-.96-2.02.32l.03.09h0Z"/>
          <path class="cls-11" d="M195.73,387.71c.61.9-.08,2.42-1.53,3.4-1.45.98-3.95,1.88-4.56.99s.91-3.25,2.36-4.23,3.12-1.06,3.73-.16h0Z"/>
          <path class="cls-6" d="M201.13,383.24c.61.9-.74,3.09-2.19,4.07s-3.12,1.06-3.73.16.74-3.09,2.19-4.07,3.12-1.06,3.73-.16Z"/>
          <ellipse class="cls-2" cx="197.82" cy="385.71" rx="1.07" ry=".66" transform="translate(-182.34 177.42) rotate(-34.13)"/>
          <ellipse class="cls-2" cx="193.08" cy="389.51" rx="1.07" ry=".66" transform="translate(-185.29 175.42) rotate(-34.13)"/>
        </g>
        <path class="cls-3" d="M90.85,405.21s.07.07.1.11c5.76-11.66,14.7-22.48,27.61-30.25,5.74-3.49,11.63-5.93,17.53-7.43-3.44-2.18-6.7-4.63-9.71-7.41-.12-.11-.22-.22-.33-.33-6.74,2.21-13.14,5.31-18.79,9.05-9.68,5.9-16.88,14.74-23.34,24.73-1.14,1.85-2.24,3.69-3.33,5.54,3.74.07,7.41,2.65,10.26,5.98h0Z"/>
      </g>
      <path class="cls-4" d="M90.91,402.98c-2-2.5-1.5-5.5.5-8.5l25-32.5c3-4,9-4,12.5-.5,30.73,19.52,76.53,36.92,106,11.5,32-27.59,33.5-66,11-162.5-20-85,14-155.5,79-167.5,38.5-7.5,76.5,6.5,94,35,2,3,2,8-.5,10.5l-18.5,19.5c-3,3.5-8.5,3.5-11,0-22-31.5-64.5-38.5-89-12-28.5,31-24,78-6.5,147,19,75.5,9,150-60,183-47.5,22.5-117,6.5-142.5-23Z"/>
      <g class="cls-17">
        <g>
          <path class="cls-12" d="M195.32,388.03c-.56.06-.99.05-1.33-.29-17.93-21.56-48.36-28.1-75.43-11.65-37.99,22.86-41.7,72.23-30.76,91.37,14.01,19.7,36.1,32.61,69.49,17.36,4.05-1.96,15.96-11.6,18.91-14.75,4.67-5,7.6-8.13,9.45-10.6,19.21-25.72,20.25-26.83,21.49-26.45,2.39.74-13.06,23.15-14.18,25.71-.47,1.09-11.86,15.73-13.05,17.14-2.34,2.77-5.46,5.37-8.3,7.74-8.13,6.43-17.93,12.04-27.56,14.49-10,2.8-20.54,3.78-31.23,1.9-18.94-3.78-33.59-17.5-40.56-33.69-4.73-11.41-5.81-30.01-2.38-42.79,3.05-10.2,8.28-19.46,14.04-28.8,6.46-9.99,13.65-18.84,23.34-24.73,20.39-13.52,50.46-18.64,71.27-3.62,3.32,2.36,6.58,4.4,9.4,7.38,3.39,3.47,6.83,8.94,8.33,11.61.69,1.14.58,2.49-.88,2.67h-.07,0Z"/>
          <path class="cls-8" d="M196.17,388.21c.34.96,1.43,2.49,1.83,4.22.41,1.64.32,3.39.18,5.09-1.36,11.75,5.84,16.57,15.48,21.08,3.29,1.55,2.06.59-.05-1.4-4.67-4.72-11.52-9.67-12.58-16.76-.63-4.41,1.3-9.8-2.86-12.64-.77-.53-2.36-.96-2.02.32l.03.09h0Z"/>
          <path class="cls-10" d="M195.73,387.71c.61.9-.08,2.42-1.53,3.4-1.45.98-3.95,1.88-4.56.99s.91-3.25,2.36-4.23,3.12-1.06,3.73-.16h0Z"/>
          <path class="cls-7" d="M201.13,383.24c.61.9-.74,3.09-2.19,4.07s-3.12,1.06-3.73.16.74-3.09,2.19-4.07,3.12-1.06,3.73-.16Z"/>
          <ellipse class="cls-2" cx="197.82" cy="385.71" rx="1.07" ry=".66" transform="translate(-182.34 177.42) rotate(-34.13)"/>
          <ellipse class="cls-2" cx="193.08" cy="389.51" rx="1.07" ry=".66" transform="translate(-185.29 175.42) rotate(-34.13)"/>
        </g>
      </g>
      <g class="cls-5">
        <path class="cls-3" d="M90.85,405.21s.07.07.1.11c5.76-11.66,14.7-22.48,27.61-30.25,5.74-3.49,11.63-5.93,17.53-7.43-3.44-2.18-6.7-4.63-9.71-7.41-.12-.11-.22-.22-.33-.33-6.74,2.21-13.14,5.31-18.79,9.05-9.68,5.9-16.88,14.74-23.34,24.73-1.14,1.85-2.24,3.69-3.33,5.54,3.74.07,7.41,2.65,10.26,5.98h0Z"/>
      </g>
    </g>
    <path class="cls-14" d="M188.69,392.21c1.07,1.94,6.48-.42,7.6-1.49s-.91,13.24,1.88,17.22c3.53,5.03,13.1,7.82,14.78,11.79.34.81,3.08.84,3.07.37l-2.34-1.92c-.05-.29-.22-.55-.46-.72l-13.35-10.35c-.48-.32-.6-1.27-.73-1.83-.71-3-.42-11.97-.79-13.11-.04-.11-1.27-2.82-1.32-2.94-.5-1.1-1.57.83-2.48,1.62-.42.37-2.41,1.12-3.29,1.36-3.18.83-.66-2.98-.66-2.98,0,0,3.01-3.75,2.48-2.99-.49.7-5.44,4.04-4.37,5.97h-.02Z"/>
  </g>
  <g id="Layer_5" data-name="Layer 5">
    <path class="cls-15" d="M565.26,581.69l63.5-125.44c-32.14,1.18-64.68,2.74-97.22,4.7l-75.26,141.9c-1.57,2.74-5.1,3.92-7.84,2.35l-16.86-8.23c-3.14-1.57-4.31-5.1-2.74-8.23l63.5-125.44c-26.66,1.57-53.31,3.92-79.97,6.27-4.7.39-9.02-3.14-7.45-8.23l2.35-8.62c.78-2.35,2.35-4.31,4.7-4.31,30.58-3.14,61.15-5.88,92.12-8.62l79.18-156.02c1.18-2.74,3.92-3.92,7.06-2.74l23.91,8.23c3.92,1.57,5.49,5.1,3.53,9.02l-73.3,138.38c32.14-2.35,65.07-4.31,97.61-6.27l81.14-159.94c1.18-2.74,3.92-3.92,7.06-2.74l22.34,7.84c3.92,1.57,5.49,5.1,3.53,9.02l-76.44,143.86,96.04-4.7c5.1-.39,7.45,2.74,5.1,6.66l-8.23,15.29c-1.57,3.14-4.31,4.7-9.02,5.1-32.14,1.57-65.07,2.74-98,3.92l-73.7,139.16c-1.57,2.74-4.31,3.92-7.06,2.74l-16.46-6.66c-3.53-1.57-4.7-4.7-3.14-8.23l.02-.02Z"/>
  </g>
</svg>